<?xml version="1.0" encoding="UTF-8"?>
<!DOCTYPE svg PUBLIC "-//W3C//DTD SVG 1.1//EN" "http://www.w3.org/Graphics/SVG/1.1/DTD/svg11.dtd">
<svg xmlns="http://www.w3.org/2000/svg" version="1.1" width="1094px" height="81px" style="shape-rendering:geometricPrecision; text-rendering:geometricPrecision; image-rendering:optimizeQuality; fill-rule:evenodd; clip-rule:evenodd" xmlns:xlink="http://www.w3.org/1999/xlink">
<g><path style="opacity:0.919" fill="#7b1b32" d="M -0.5,74.5 C -0.5,50.5 -0.5,26.5 -0.5,2.5C 7.60149,1.19716 15.9348,0.530491 24.5,0.5C 32.5,0.666667 40.5,0.833333 48.5,1C 52.4311,10.606 57.0978,10.7727 62.5,1.5C 73.4849,0.334249 84.4849,0.167582 95.5,1C 102.004,5.0049 107.338,10.1716 111.5,16.5C 112.784,11.1921 114.451,6.02539 116.5,1C 124.159,0.500315 131.826,0.333648 139.5,0.5C 139.499,7.51384 139.166,14.5138 138.5,21.5C 138.8,31.9297 139.8,42.263 141.5,52.5C 148.638,49.3286 155.138,50.3286 161,55.5C 162.306,37.8019 163.973,20.1353 166,2.5C 172.548,0.562032 179.382,-0.104635 186.5,0.5C 188.771,18.0887 189.771,35.7554 189.5,53.5C 195.167,53.5 200.833,53.5 206.5,53.5C 206.26,42.7456 207.093,32.0789 209,21.5C 213.741,14.0885 219.241,7.25513 225.5,1C 237.5,0.333333 249.5,0.333333 261.5,1C 264.114,4.29021 267.281,6.79021 271,8.5C 273.794,6.58089 275.294,3.91422 275.5,0.5C 282.2,0.169977 288.866,0.503311 295.5,1.5C 297.64,7.25703 299.974,12.9237 302.5,18.5C 304.246,12.5969 306.579,6.93028 309.5,1.5C 316.142,0.335815 322.808,0.169148 329.5,1C 333.398,6.57127 336.898,12.4046 340,18.5C 341.345,12.7844 342.845,7.11773 344.5,1.5C 351.39,0.188941 358.223,0.188941 365,1.5C 366.966,4.60096 368.8,7.76763 370.5,11C 364.81,33.4067 357.143,55.0734 347.5,76C 340.26,81.211 333.76,80.3776 328,73.5C 325.607,68.3217 323.607,62.9884 322,57.5C 320.341,61.1322 318.674,64.7988 317,68.5C 309.895,77.0603 301.395,78.5603 291.5,73C 289.525,72.022 287.858,70.6887 286.5,69C 285.055,62.7191 283.221,56.5525 281,50.5C 272.907,73.2982 257.074,81.4648 233.5,75C 226.787,72.8966 220.954,69.3966 216,64.5C 214.745,68.649 212.578,72.149 209.5,75C 194.13,79.0173 178.63,79.5173 163,76.5C 147.732,79.2745 132.565,78.7745 117.5,75C 116.572,74.6121 115.905,73.9454 115.5,73C 113.98,68.4403 112.48,63.9403 111,59.5C 96.3716,76.7628 78.5383,80.9294 57.5,72C 50.6349,65.4693 44.1349,58.636 38,51.5C 33.4959,53.9199 28.6625,54.9199 23.5,54.5C 26.6902,74.6448 18.6902,81.3115 -0.5,74.5 Z M 29.5,23.5 C 32.9466,23.8143 36.2799,24.6476 39.5,26C 34.6983,28.4802 29.6983,28.9802 24.5,27.5C 26.0147,25.9178 27.6814,24.5845 29.5,23.5 Z M 77.5,23.5 C 82.8047,24.306 85.9714,27.306 87,32.5C 89.4889,51.0383 83.1556,55.0383 68,44.5C 66.8375,37.6601 68.3375,31.4934 72.5,26C 74.3146,25.2432 75.9812,24.4098 77.5,23.5 Z"/></g>
<g><path style="opacity:0.908" fill="#7a1a32" d="M 391.5,0.5 C 399.196,0.169174 406.862,0.502507 414.5,1.5C 419.272,10.7113 423.772,20.0447 428,29.5C 430.915,19.7525 434.415,10.2525 438.5,1C 447.16,0.500246 455.827,0.33358 464.5,0.5C 467.749,24.1415 468.083,47.8082 465.5,71.5C 456.399,78.7127 448.065,77.7127 440.5,68.5C 430.506,83.3643 421.006,83.031 412,67.5C 408.024,74.2361 402.191,76.7361 394.5,75C 391.758,73.9296 389.258,72.4296 387,70.5C 384.047,46.8384 385.547,23.505 391.5,0.5 Z"/></g>
<g><path style="opacity:0.922" fill="#7a1a31" d="M 472.5,0.5 C 487.745,0.175822 502.911,0.509156 518,1.5C 522.266,10.0283 520.433,16.8616 512.5,22C 507.833,22.6667 503.167,23.3333 498.5,24C 505.084,25.3759 510.918,28.2093 516,32.5C 516.422,34.3553 516.922,36.1886 517.5,38C 517.293,41.9199 515.626,44.9199 512.5,47C 507.206,47.4551 502.206,48.7884 497.5,51C 503.607,53.2966 509.941,54.6299 516.5,55C 520.767,60.5998 521.433,66.5998 518.5,73C 502.571,77.8024 486.738,77.6358 471,72.5C 468.75,48.4341 469.25,24.4341 472.5,0.5 Z"/></g>
<g><path style="opacity:0.922" fill="#7a1b32" d="M 556.5,0.5 C 568.505,0.333462 580.505,0.500129 592.5,1C 599.748,5.08162 605.082,10.915 608.5,18.5C 609.731,11.9588 612.397,6.12549 616.5,1C 623.192,0.169148 629.858,0.335815 636.5,1.5C 640.929,9.35918 646.095,16.6925 652,23.5C 653.567,15.8336 655.067,8.16694 656.5,0.5C 663.2,0.169977 669.866,0.503311 676.5,1.5C 680.791,25.5745 680.291,49.5745 675,73.5C 665.983,80.7644 657.65,80.0977 650,71.5C 646.333,65.8333 642.667,60.1667 639,54.5C 640.08,73.2212 631.58,79.8878 613.5,74.5C 610.481,70.4613 607.981,66.1279 606,61.5C 579.349,86.9264 557.015,83.5931 539,51.5C 534.22,30.6696 540.053,13.6696 556.5,0.5 Z M 572.5,23.5 C 576.719,23.5285 580.219,25.1951 583,28.5C 584.456,34.0966 584.789,39.7633 584,45.5C 583.215,47.286 582.049,48.786 580.5,50C 575.303,50.8668 570.303,50.2002 565.5,48C 564.833,46.3333 564.167,44.6667 563.5,43C 564.169,38.5044 565.002,34.0044 566,29.5C 567.494,26.6865 569.66,24.6865 572.5,23.5 Z"/></g>
<g><path style="opacity:0.998" fill="#cc1f38" d="M 239.5,6.5 C 245.909,6.1827 252.243,6.6827 258.5,8C 273.256,21.526 277.089,37.6926 270,56.5C 247.807,76.3341 229.474,73.3341 215,47.5C 212.012,31.7744 216.845,19.2744 229.5,10C 232.98,8.89744 236.313,7.73077 239.5,6.5 Z"/></g>
<g><path style="opacity:1" fill="#c91f38" d="M 4.5,7.5 C 16.8333,7.5 29.1667,7.5 41.5,7.5C 41.5,10.5 41.5,13.5 41.5,16.5C 33.1667,16.5 24.8333,16.5 16.5,16.5C 16.5,22.8333 16.5,29.1667 16.5,35.5C 23.8333,35.5 31.1667,35.5 38.5,35.5C 38.8019,43.033 35.1352,46.8663 27.5,47C 23.8484,47.4986 20.1817,47.6653 16.5,47.5C 16.5,54.8333 16.5,62.1667 16.5,69.5C 12.5,69.5 8.5,69.5 4.5,69.5C 4.5,48.8333 4.5,28.1667 4.5,7.5 Z"/></g>
<g><path style="opacity:1" fill="#d01f38" d="M 122.5,7.5 C 125.833,7.5 129.167,7.5 132.5,7.5C 132.333,20.8375 132.5,34.1708 133,47.5C 133.176,50.8818 133.676,54.2152 134.5,57.5C 141.961,59.9721 149.627,60.9721 157.5,60.5C 157.5,63.5 157.5,66.5 157.5,69.5C 145.833,69.5 134.167,69.5 122.5,69.5C 122.5,48.8333 122.5,28.1667 122.5,7.5 Z"/></g>
<g><path style="opacity:1" fill="#cf1f38" d="M 169.5,7.5 C 172.833,7.5 176.167,7.5 179.5,7.5C 179.481,24.1755 179.814,40.8422 180.5,57.5C 189.29,60.0971 198.29,61.0971 207.5,60.5C 207.5,63.5 207.5,66.5 207.5,69.5C 194.833,69.5 182.167,69.5 169.5,69.5C 169.5,48.8333 169.5,28.1667 169.5,7.5 Z"/></g>
<g><path style="opacity:1" fill="#ca1f38" d="M 285.5,7.5 C 288.091,8.25429 289.924,9.92096 291,12.5C 294.414,25.0742 298.414,37.4075 303,49.5C 308.205,36.2732 311.705,22.6065 313.5,8.5C 317.783,7.50776 322.116,7.17443 326.5,7.5C 327.529,19.4764 330.029,31.1431 334,42.5C 335.807,47.25 338.14,47.5833 341,43.5C 344.918,33.1604 347.585,22.4937 349,11.5C 352.04,8.03372 355.874,6.70039 360.5,7.5C 356.945,27.0541 352.445,46.3874 347,65.5C 342.959,70.3125 338.625,70.6459 334,66.5C 330.319,53.7887 325.652,41.4553 320,29.5C 314.014,41.1047 310.347,53.438 309,66.5C 304.261,70.4101 299.594,70.4101 295,66.5C 291.407,52.3878 287.407,38.3878 283,24.5C 281.805,18.4252 282.639,12.7585 285.5,7.5 Z"/></g>
<g><path style="opacity:1" fill="#c91f38" d="M 401.5,7.5 C 404.833,7.5 408.167,7.5 411.5,7.5C 413.629,22.7194 418.462,37.0528 426,50.5C 433.415,37.9255 439.082,24.5921 443,10.5C 448.333,6.5 453.667,6.5 459,10.5C 460.183,30.1491 460.683,49.8158 460.5,69.5C 456.5,69.5 452.5,69.5 448.5,69.5C 448.822,56.92 448.489,44.42 447.5,32C 444.506,32.3584 442.673,34.1917 442,37.5C 438.882,47.5486 435.382,57.382 431.5,67C 427.549,69.1007 423.716,68.934 420,66.5C 416.319,53.7887 411.652,41.4553 406,29.5C 405.208,42.2714 403.708,54.938 401.5,67.5C 398.706,70.1003 395.873,70.1003 393,67.5C 393.161,48.4081 394.494,29.4081 397,10.5C 398.409,9.21886 399.909,8.21886 401.5,7.5 Z"/></g>
<g><path style="opacity:1" fill="#cb1f38" d="M 476.5,7.5 C 487.833,7.5 499.167,7.5 510.5,7.5C 510.5,10.5 510.5,13.5 510.5,16.5C 503.104,16.1997 495.771,16.6997 488.5,18C 484.354,22.6253 484.687,26.9586 489.5,31C 495.423,32.3041 501.423,32.8041 507.5,32.5C 507.5,35.5 507.5,38.5 507.5,41.5C 500.167,41.5 492.833,41.5 485.5,41.5C 484.994,47.4434 485.994,53.1101 488.5,58.5C 495.808,59.816 503.141,60.9827 510.5,62C 511.687,63.0195 512.687,64.1861 513.5,65.5C 508.773,67.7186 503.773,68.8853 498.5,69C 491.174,69.4997 483.841,69.6663 476.5,69.5C 476.5,48.8333 476.5,28.1667 476.5,7.5 Z"/></g>
<g><path style="opacity:1" fill="#cc1f38" d="M 619.5,7.5 C 626.12,7.22723 631.62,9.56056 636,14.5C 642.251,26.0078 649.251,37.0078 657,47.5C 660.135,34.3597 661.301,21.0263 660.5,7.5C 663.5,7.5 666.5,7.5 669.5,7.5C 669.5,28.1667 669.5,48.8333 669.5,69.5C 663.93,70.5839 659.43,68.9173 656,64.5C 648.443,52.2765 640.109,40.6098 631,29.5C 629.301,41.7745 628.301,54.1079 628,66.5C 624.333,70.5 620.667,70.5 617,66.5C 616.765,46.7919 617.599,27.1252 619.5,7.5 Z"/></g>
<g><path style="opacity:1" fill="#c91f38" d="M 567.5,8.5 C 585.373,5.53266 597.539,12.5327 604,29.5C 605.991,43.0017 602.158,54.5017 592.5,64C 583.505,69.6713 573.839,71.0047 563.5,68C 543.003,56.6755 538.503,40.5088 550,19.5C 554.869,14.1566 560.703,10.4899 567.5,8.5 Z M 572.5,23.5 C 569.66,24.6865 567.494,26.6865 566,29.5C 565.002,34.0044 564.169,38.5044 563.5,43C 564.167,44.6667 564.833,46.3333 565.5,48C 570.303,50.2002 575.303,50.8668 580.5,50C 582.049,48.786 583.215,47.286 584,45.5C 584.789,39.7633 584.456,34.0966 583,28.5C 580.219,25.1951 576.719,23.5285 572.5,23.5 Z"/></g>
<g><path style="opacity:1" fill="#c91f38" d="M 66.5,9.5 C 75.9682,9.04387 85.3016,9.87721 94.5,12C 116.232,33.2201 114.232,51.8868 88.5,68C 71.4932,70.8914 57.9932,65.3914 48,51.5C 46.848,41.9234 47.848,32.5901 51,23.5C 54.4922,16.8344 59.6589,12.1678 66.5,9.5 Z M 77.5,23.5 C 75.9812,24.4098 74.3146,25.2432 72.5,26C 68.3375,31.4934 66.8375,37.6601 68,44.5C 83.1556,55.0383 89.4889,51.0383 87,32.5C 85.9714,27.306 82.8047,24.306 77.5,23.5 Z"/></g>
<g><path style="opacity:1" fill="#801b32" d="M 568.5,17.5 C 581.733,14.0459 590.233,18.7126 594,31.5C 595.555,41.5026 592.721,50.0026 585.5,57C 579.724,59.3941 573.724,60.0607 567.5,59C 563.944,54.941 559.944,51.441 555.5,48.5C 551.522,34.3815 555.856,24.0481 568.5,17.5 Z M 572.5,23.5 C 569.66,24.6865 567.494,26.6865 566,29.5C 565.002,34.0044 564.169,38.5044 563.5,43C 564.167,44.6667 564.833,46.3333 565.5,48C 570.303,50.2002 575.303,50.8668 580.5,50C 582.049,48.786 583.215,47.286 584,45.5C 584.789,39.7633 584.456,34.0966 583,28.5C 580.219,25.1951 576.719,23.5285 572.5,23.5 Z"/></g>
<g><path style="opacity:1" fill="#841b33" d="M 75.5,17.5 C 79.8461,17.3343 84.1794,17.501 88.5,18C 103.713,37.3772 99.8798,51.5439 77,60.5C 60.7346,56.8072 55.068,46.8072 60,30.5C 63.258,23.7302 68.4247,19.3969 75.5,17.5 Z M 77.5,23.5 C 75.9812,24.4098 74.3146,25.2432 72.5,26C 68.3375,31.4934 66.8375,37.6601 68,44.5C 83.1556,55.0383 89.4889,51.0383 87,32.5C 85.9714,27.306 82.8047,24.306 77.5,23.5 Z"/></g>
<g><path style="opacity:0.999" fill="#811a32" d="M 235.5,18.5 C 243.958,17.415 251.791,19.0817 259,23.5C 269.172,47.9846 261.005,59.4846 234.5,58C 231.667,54.5 228.833,51 226,47.5C 224.509,39.0073 225.843,31.0073 230,23.5C 231.812,21.6997 233.645,20.0331 235.5,18.5 Z"/></g>
<g><path style="opacity:0.953" fill="#7a1b32" d="M 240.5,25.5 C 251.874,25.7279 256.041,31.3945 253,42.5C 251.318,51.7499 246.484,53.9165 238.5,49C 235.639,46.7806 233.639,43.9473 232.5,40.5C 232.557,33.917 235.223,28.917 240.5,25.5 Z"/></g>
<g><path style="opacity:0.906" fill="#36152b" d="M 871.5,31.5 C 945.184,31.3217 1018.85,32.3217 1092.5,34.5C 1092.5,39.1667 1092.5,43.8333 1092.5,48.5C 998.516,51.7172 904.516,52.2172 810.5,50C 803.109,50.4049 799.942,46.9049 801,39.5C 801.45,37.481 802.283,35.6477 803.5,34C 826.318,32.9911 848.985,32.1578 871.5,31.5 Z"/></g>
<g><path style="opacity:1" fill="#4b162c" d="M 934.5,44.5 C 895.996,44.8319 857.663,44.4985 819.5,43.5C 902.122,37.334 984.788,36.834 1067.5,42C 1023.18,43.3839 978.843,44.2172 934.5,44.5 Z"/></g>
<g><path style="opacity:0.977" fill="#40162b" d="M 819.5,43.5 C 857.663,44.4985 895.996,44.8319 934.5,44.5C 894.002,45.6646 853.335,45.8313 812.5,45C 814.677,43.7978 817.011,43.2978 819.5,43.5 Z"/></g>
</svg>
