<?xml version="1.0" encoding="UTF-8"?>
<!DOCTYPE svg PUBLIC "-//W3C//DTD SVG 1.1//EN" "http://www.w3.org/Graphics/SVG/1.1/DTD/svg11.dtd">
<svg xmlns="http://www.w3.org/2000/svg" version="1.1" width="512px" height="512px" style="shape-rendering:geometricPrecision; text-rendering:geometricPrecision; image-rendering:optimizeQuality; fill-rule:evenodd; clip-rule:evenodd" xmlns:xlink="http://www.w3.org/1999/xlink">
<g><path style="opacity:1" fill="#d82d2a" d="M 243.5,-0.5 C 251.5,-0.5 259.5,-0.5 267.5,-0.5C 292.186,5.32742 312.352,18.3274 328,38.5C 333.889,46.0565 339.389,53.8898 344.5,62C 363.788,58.8297 383.121,58.8297 402.5,62C 446.149,72.3276 468.482,99.9943 469.5,145C 468.252,172.159 461.752,197.992 450,222.5C 444.149,233.537 438.316,244.537 432.5,255.5C 445.987,277.778 456.487,301.445 464,326.5C 471.582,351.989 471.248,377.322 463,402.5C 449.989,429.613 428.489,445.447 398.5,450C 380.375,452.121 362.375,451.788 344.5,449C 334.86,465.263 322.86,479.596 308.5,492C 296.316,501.76 282.649,508.26 267.5,511.5C 259.5,511.5 251.5,511.5 243.5,511.5C 218.814,505.673 198.648,492.673 183,472.5C 177.111,464.943 171.611,457.11 166.5,449C 155.892,449.979 145.225,450.812 134.5,451.5C 103.814,452.567 78.3139,441.901 58,419.5C 46.6334,403.385 41.1334,385.385 41.5,365.5C 43.2737,332.343 52.4404,301.343 69,272.5C 72.6258,266.75 76.1258,260.916 79.5,255C 62.0181,228.529 50.1847,199.696 44,168.5C 41.7548,152.104 42.0882,135.771 45,119.5C 55.6303,85.2097 78.797,65.7097 114.5,61C 131.954,58.9511 149.288,59.2845 166.5,62C 176.14,45.7371 188.14,31.4038 202.5,19C 214.684,9.24005 228.351,2.74005 243.5,-0.5 Z M 247.5,21.5 C 266.695,20.2863 283.362,26.1197 297.5,39C 306.972,47.6129 314.638,57.4462 320.5,68.5C 312.036,70.4874 303.702,72.9874 295.5,76C 282.045,81.5612 268.711,87.3946 255.5,93.5C 234.949,83.0587 213.616,74.5587 191.5,68C 190.549,67.2825 190.383,66.4491 191,65.5C 200.88,49.953 213.713,37.453 229.5,28C 235.435,25.3026 241.435,23.1359 247.5,21.5 Z M 126.5,81.5 C 136.311,81.1446 145.978,81.978 155.5,84C 139.651,119.557 129.485,156.723 125,195.5C 113.955,208.209 103.289,221.209 93,234.5C 82.1352,215.577 73.8018,195.577 68,174.5C 64.3242,159.291 63.6576,143.957 66,128.5C 70.2385,109.262 81.4052,95.7622 99.5,88C 108.38,84.7296 117.38,82.5629 126.5,81.5 Z M 370.5,81.5 C 429.095,81.0569 453.928,109.724 445,167.5C 439.585,191.323 430.585,213.657 418,234.5C 407.711,221.209 397.045,208.209 386,195.5C 381.204,156.811 371.037,119.645 355.5,84C 360.604,83.002 365.604,82.1686 370.5,81.5 Z M 178.5,87.5 C 196.747,92.5831 214.414,99.2497 231.5,107.5C 203.484,125.008 177.317,145.008 153,167.5C 157.773,139.678 166.273,113.012 178.5,87.5 Z M 328.5,88.5 C 330.288,88.2148 331.955,88.5481 333.5,89.5C 345.208,114.453 353.374,140.453 358,167.5C 333.714,145.366 307.881,125.366 280.5,107.5C 296.101,99.9703 312.101,93.637 328.5,88.5 Z M 255.5,119.5 C 295.869,142.684 332.036,171.351 364,205.5C 367.333,238.833 367.333,272.167 364,305.5C 332.252,339.78 296.085,368.114 255.5,390.5C 214.915,368.114 178.748,339.78 147,305.5C 143.667,272.167 143.667,238.833 147,205.5C 178.989,171.32 215.156,142.654 255.5,119.5 Z M 121.5,233.5 C 121.364,247.677 121.531,262.01 122,276.5C 116.345,269.856 111.179,262.856 106.5,255.5C 111.52,248.109 116.52,240.776 121.5,233.5 Z M 388.5,233.5 C 394.164,240.511 399.497,247.845 404.5,255.5C 399.912,262.922 394.745,269.922 389,276.5C 389.815,262.186 389.648,247.852 388.5,233.5 Z M 92.5,276.5 C 103.039,289.558 113.873,302.558 125,315.5C 129.485,354.277 139.651,391.443 155.5,427C 136.514,430.529 117.847,429.196 99.5,423C 75.1219,411.616 63.1219,392.283 63.5,365C 66.2643,333.208 75.9309,303.708 92.5,276.5 Z M 417.5,276.5 C 435.061,303.515 445.061,333.182 447.5,365.5C 445.745,404.423 425.411,425.59 386.5,429C 376.471,429.665 366.471,429.332 356.5,428C 356.167,427.667 355.833,427.333 355.5,427C 371.349,391.443 381.515,354.277 386,315.5C 397.092,302.915 407.592,289.915 417.5,276.5 Z M 152.5,343.5 C 176.974,365.808 203.307,385.641 231.5,403C 214.909,411.365 197.576,417.865 179.5,422.5C 178.833,422.167 178.167,421.833 177.5,421.5C 165.956,396.534 157.623,370.534 152.5,343.5 Z M 357.5,343.5 C 353.395,371.325 344.895,397.991 332,423.5C 313.796,418.433 296.296,411.599 279.5,403C 307.676,385.988 333.676,366.154 357.5,343.5 Z M 254.5,416.5 C 275.885,427.533 297.885,436.866 320.5,444.5C 310.26,461.24 296.593,474.407 279.5,484C 257.58,493.36 237.246,490.693 218.5,476C 208.586,468.088 200.086,458.922 193,448.5C 191.441,446.783 190.608,444.783 190.5,442.5C 213.015,436.57 234.348,427.904 254.5,416.5 Z"/></g>
<g><path style="opacity:1" fill="#d82d2a" d="M 277.5,180.5 C 290.657,180.801 294.824,187.134 290,199.5C 276,230.833 262,262.167 248,293.5C 244.562,298.081 240.062,299.581 234.5,298C 228.397,294.96 226.231,290.126 228,283.5C 242.472,250.417 257.139,217.417 272,184.5C 273.812,183.023 275.645,181.69 277.5,180.5 Z"/></g>
<g><path style="opacity:1" fill="#d82d2a" d="M 203.5,201.5 C 213.84,201.337 218.34,206.337 217,216.5C 216.208,218.587 215.041,220.421 213.5,222C 203.167,229.667 192.833,237.333 182.5,245C 193.936,253.136 205.103,261.636 216,270.5C 219.174,284.836 213.674,290.002 199.5,286C 184.023,274.518 168.856,262.684 154,250.5C 151.541,245.087 152.374,240.253 156.5,236C 172.068,224.251 187.735,212.751 203.5,201.5 Z"/></g>
<g><path style="opacity:1" fill="#d82d2a" d="M 299.5,201.5 C 303.131,201.16 306.464,201.994 309.5,204C 323.655,214.91 337.988,225.577 352.5,236C 358.379,243.62 357.379,250.286 349.5,256C 335.5,266.333 321.5,276.667 307.5,287C 294.22,288.944 289.387,283.444 293,270.5C 303.897,261.636 315.064,253.136 326.5,245C 315.667,236.833 304.833,228.667 294,220.5C 289.323,212.117 291.156,205.784 299.5,201.5 Z"/></g>
</svg>
