<?xml version="1.0" encoding="UTF-8"?>
<!DOCTYPE svg PUBLIC "-//W3C//DTD SVG 1.1//EN" "http://www.w3.org/Graphics/SVG/1.1/DTD/svg11.dtd">
<svg xmlns="http://www.w3.org/2000/svg" version="1.1" width="26px" height="350px" style="shape-rendering:geometricPrecision; text-rendering:geometricPrecision; image-rendering:optimizeQuality; fill-rule:evenodd; clip-rule:evenodd" xmlns:xlink="http://www.w3.org/1999/xlink">
<g><path style="opacity:0.953" fill="#7a1b32" d="M 2.5,-0.5 C 9.83333,-0.5 17.1667,-0.5 24.5,-0.5C 24.5,0.166667 24.8333,0.5 25.5,0.5C 25.5,5.5 25.5,10.5 25.5,15.5C 22.1584,16.6642 22.1584,18.3308 25.5,20.5C 25.5,23.8333 25.5,27.1667 25.5,30.5C 24.0226,32.807 22.0226,34.6403 19.5,36C 21.5856,36.3153 23.5856,36.8153 25.5,37.5C 25.5,39.8333 25.5,42.1667 25.5,44.5C 24.5,44.5 23.5,44.5 22.5,44.5C 22.9175,43.7784 23.5842,43.2784 24.5,43C 24.2716,42.6012 23.9382,42.4346 23.5,42.5C 23.5,41.5 23.5,40.5 23.5,39.5C 16.8333,39.5 10.1667,39.5 3.5,39.5C 3.5,41.1667 3.5,42.8333 3.5,44.5C 2.18575,46.8953 2.18575,49.3953 3.5,52C 2.90558,52.4643 2.23891,52.631 1.5,52.5C 0.544683,47.5202 0.71135,42.5202 2,37.5C 3.73369,36.7511 5.56702,36.2511 7.5,36C 1.44212,31.4807 -0.0578754,25.6474 3,18.5C 5.04253,16.2878 7.20919,14.2878 9.5,12.5C 8.69063,10.9291 8.35729,9.26241 8.5,7.5C 1.76069,8.45969 -0.23931,5.79302 2.5,-0.5 Z M 16.5,7.5 C 17.6935,7.97041 18.3601,8.97041 18.5,10.5C 18.1667,11.5 17.8333,12.5 17.5,13.5C 16.5344,11.604 16.2011,9.60395 16.5,7.5 Z M 11.5,21.5 C 13.6547,21.372 15.6547,21.872 17.5,23C 18.8602,24.9376 18.5268,26.6043 16.5,28C 9.18761,29.2338 7.52094,27.0671 11.5,21.5 Z"/></g>
<g><path style="opacity:1" fill="#ca2039" d="M 3.5,1.5 C 10.1667,1.5 16.8333,1.5 23.5,1.5C 23.5,5.5 23.5,9.5 23.5,13.5C 22.5,13.5 21.5,13.5 20.5,13.5C 20.5,10.8333 20.5,8.16667 20.5,5.5C 18.5,5.5 16.5,5.5 14.5,5.5C 14.5,7.83333 14.5,10.1667 14.5,12.5C 13.325,12.719 12.325,12.3857 11.5,11.5C 10.6518,9.59136 10.3184,7.59136 10.5,5.5C 8.16667,5.5 5.83333,5.5 3.5,5.5C 3.5,4.16667 3.5,2.83333 3.5,1.5 Z"/></g>
<g><path style="opacity:1" fill="#cc2039" d="M 9.5,15.5 C 20.8614,14.6855 25.0281,19.6855 22,30.5C 15.2712,37.4267 9.27118,36.7601 4,28.5C 3.11377,22.9465 4.9471,18.6131 9.5,15.5 Z M 11.5,21.5 C 7.52094,27.0671 9.18761,29.2338 16.5,28C 18.5268,26.6043 18.8602,24.9376 17.5,23C 15.6547,21.872 13.6547,21.372 11.5,21.5 Z"/></g>
<g><path style="opacity:0.936" fill="#7c1b32" d="M 9.5,19.5 C 17.3209,17.8328 20.8209,20.8328 20,28.5C 13.8254,33.3377 9.32538,32.171 6.5,25C 6.86269,22.8077 7.86269,20.9744 9.5,19.5 Z M 11.5,21.5 C 7.52094,27.0671 9.18761,29.2338 16.5,28C 18.5268,26.6043 18.8602,24.9376 17.5,23C 15.6547,21.872 13.6547,21.372 11.5,21.5 Z"/></g>
<g><path style="opacity:1" fill="#d32039" d="M 23.5,42.5 C 18.1563,42.334 12.8229,42.5006 7.5,43C 6.565,45.3806 6.23166,47.8806 6.5,50.5C 5.5,50.5 4.5,50.5 3.5,50.5C 3.5,48.5 3.5,46.5 3.5,44.5C 3.5,42.8333 3.5,41.1667 3.5,39.5C 10.1667,39.5 16.8333,39.5 23.5,39.5C 23.5,40.5 23.5,41.5 23.5,42.5 Z"/></g>
<g><path style="opacity:0.953" fill="#7a1b32" d="M 23.5,42.5 C 23.9382,42.4346 24.2716,42.6012 24.5,43C 23.5842,43.2784 22.9175,43.7784 22.5,44.5C 17.8215,44.3342 13.1548,44.5008 8.5,45C 9.98168,47.5918 9.64834,49.9251 7.5,52C 13.5807,52.2092 19.5807,52.7092 25.5,53.5C 25.5,55.5 25.5,57.5 25.5,59.5C 19.9252,60.4524 14.2586,60.7857 8.5,60.5C 8.5,62.5 8.5,64.5 8.5,66.5C 11.8499,66.335 15.1832,66.5017 18.5,67C 20.9957,68.6665 23.329,70.4998 25.5,72.5C 25.5,76.1667 25.5,79.8333 25.5,83.5C 24.8333,84.1667 24.1667,84.8333 23.5,85.5C 23.5,84.5 23.5,83.5 23.5,82.5C 24.7235,72.5577 20.3901,68.0577 10.5,69C 2.39927,73.5277 1.39927,79.361 7.5,86.5C 6.66175,86.8417 6.32842,87.5084 6.5,88.5C 4.4959,87.3272 2.9959,85.6605 2,83.5C 0.528444,77.9245 1.69511,73.0911 5.5,69C 4.23409,68.6905 3.06743,68.1905 2,67.5C 0.541964,62.4957 0.375297,57.4957 1.5,52.5C 2.23891,52.631 2.90558,52.4643 3.5,52C 2.18575,49.3953 2.18575,46.8953 3.5,44.5C 3.5,46.5 3.5,48.5 3.5,50.5C 4.5,50.5 5.5,50.5 6.5,50.5C 6.23166,47.8806 6.565,45.3806 7.5,43C 12.8229,42.5006 18.1563,42.334 23.5,42.5 Z M 12.5,74.5 C 17.6824,74.786 19.0157,76.9527 16.5,81C 13.6529,81.9439 11.1529,81.4439 9,79.5C 9.11161,77.2028 10.2783,75.5361 12.5,74.5 Z"/></g>
<g><path style="opacity:1" fill="#d32039" d="M 3.5,54.5 C 10.1667,54.5 16.8333,54.5 23.5,54.5C 23.5,55.5 23.5,56.5 23.5,57.5C 18.1563,57.334 12.8229,57.5006 7.5,58C 6.55621,60.7191 6.22288,63.5525 6.5,66.5C 5.5,66.5 4.5,66.5 3.5,66.5C 3.5,62.5 3.5,58.5 3.5,54.5 Z"/></g>
<g><path style="opacity:1" fill="#ce2039" d="M 23.5,82.5 C 19.2573,87.5086 13.924,88.8419 7.5,86.5C 1.39927,79.361 2.39927,73.5277 10.5,69C 20.3901,68.0577 24.7235,72.5577 23.5,82.5 Z M 12.5,74.5 C 10.2783,75.5361 9.11161,77.2028 9,79.5C 11.1529,81.4439 13.6529,81.9439 16.5,81C 19.0157,76.9527 17.6824,74.786 12.5,74.5 Z"/></g>
<g><path style="opacity:0.96" fill="#7b1a32" d="M 10.5,72.5 C 19.3607,71.823 22.0274,75.323 18.5,83C 10.565,86.2994 6.73165,83.7994 7,75.5C 8.14508,74.3636 9.31174,73.3636 10.5,72.5 Z M 12.5,74.5 C 10.2783,75.5361 9.11161,77.2028 9,79.5C 11.1529,81.4439 13.6529,81.9439 16.5,81C 19.0157,76.9527 17.6824,74.786 12.5,74.5 Z"/></g>
<g><path style="opacity:0.95" fill="#7b1b32" d="M 23.5,82.5 C 23.5,83.5 23.5,84.5 23.5,85.5C 22.5092,87.1227 23.1759,88.1227 25.5,88.5C 25.5,90.5 25.5,92.5 25.5,94.5C 23.233,95.4231 20.8997,96.2564 18.5,97C 21.0301,97.3793 23.3635,98.2126 25.5,99.5C 25.5,101.5 25.5,103.5 25.5,105.5C 23.5778,106.757 21.5778,107.923 19.5,109C 21.5183,109.505 23.5183,110.005 25.5,110.5C 25.5,112.5 25.5,114.5 25.5,116.5C 24.5178,117.141 23.5178,117.807 22.5,118.5C 15.4152,116.693 8.58184,114.36 2,111.5C 0,109.5 0,107.5 2,105.5C 4.07148,104.475 6.23815,103.642 8.5,103C 1.4544,101.616 -0.212269,97.9491 3.5,92C 5.87818,91.4888 8.21151,90.8221 10.5,90C 9.0993,89.5899 7.76597,89.0899 6.5,88.5C 6.32842,87.5084 6.66175,86.8417 7.5,86.5C 13.924,88.8419 19.2573,87.5086 23.5,82.5 Z"/></g>
<g><path style="opacity:1" fill="#cc2039" d="M 18.5,90.5 C 20.288,90.2148 21.9547,90.5481 23.5,91.5C 23.2907,92.086 22.9574,92.586 22.5,93C 18.1089,94.1805 13.7755,95.5139 9.5,97C 14.0119,98.7946 18.6786,99.9613 23.5,100.5C 23.5,101.833 23.5,103.167 23.5,104.5C 7.12891,106.827 6.79558,109.327 22.5,112C 23.3366,113.011 23.67,114.178 23.5,115.5C 17.077,114.478 10.7436,112.978 4.5,111C 3.16667,109.667 3.16667,108.333 4.5,107C 8.61475,105.795 12.6147,104.295 16.5,102.5C 12.703,100.717 8.70302,99.5499 4.5,99C 3.25278,97.5064 3.25278,96.0064 4.5,94.5C 9.3186,93.2791 13.9853,91.9458 18.5,90.5 Z"/></g>
<g><path style="opacity:0.937" fill="#791a32" d="M 25.5,125.5 C 25.5,127.833 25.5,130.167 25.5,132.5C 22.3113,134.26 18.9779,135.76 15.5,137C 18.8944,138.075 22.2278,139.242 25.5,140.5C 25.5,143.167 25.5,145.833 25.5,148.5C 17.9127,149.631 10.246,149.798 2.5,149C 0.725343,145.606 1.39201,142.94 4.5,141C -0.833333,138 -0.833333,135 4.5,132C 1.06816,129.633 0.734831,126.966 3.5,124C 10.971,123.154 18.3043,123.654 25.5,125.5 Z"/></g>
<g><path style="opacity:1" fill="#cb2039" d="M 4.5,125.5 C 10.477,126.141 16.477,126.641 22.5,127C 23.3802,128.356 23.7135,129.856 23.5,131.5C 18.5554,132.371 13.8887,134.037 9.5,136.5C 13.5721,138.867 17.9055,140.7 22.5,142C 23.8333,143.667 23.8333,145.333 22.5,147C 16.1754,147.5 9.84209,147.666 3.5,147.5C 3.5,146.167 3.5,144.833 3.5,143.5C 19.2803,144.481 19.9469,142.981 5.5,139C 3.50297,137.847 3.16964,136.347 4.5,134.5C 8.65457,133.299 12.6546,131.799 16.5,130C 12.5,129.667 8.5,129.333 4.5,129C 3.3157,127.855 3.3157,126.688 4.5,125.5 Z"/></g>
<g><path style="opacity:0.967" fill="#781a31" d="M 25.5,151.5 C 25.5,156.167 25.5,160.833 25.5,165.5C 23.0642,167.017 20.8976,166.684 19,164.5C 18.6667,162.167 18.3333,159.833 18,157.5C 17.9546,160.334 17.1213,162.834 15.5,165C 13.8876,165.72 12.3876,165.554 11,164.5C 9.92136,156.847 8.92136,157.181 8,165.5C 6.27391,166.576 4.44058,166.743 2.5,166C 1.16667,161 1.16667,156 2.5,151C 10.246,150.202 17.9127,150.369 25.5,151.5 Z"/></g>
<g><path style="opacity:1" fill="#cc2039" d="M 3.5,152.5 C 10.1667,152.5 16.8333,152.5 23.5,152.5C 23.5,156.167 23.5,159.833 23.5,163.5C 22.5,163.5 21.5,163.5 20.5,163.5C 20.6633,161.143 20.4966,158.81 20,156.5C 18.6667,155.167 17.3333,155.167 16,156.5C 15.5045,158.473 15.3379,160.473 15.5,162.5C 14.5,162.5 13.5,162.5 12.5,162.5C 12.5,160.167 12.5,157.833 12.5,155.5C 10.5328,155.261 8.69946,155.594 7,156.5C 6.66667,158.833 6.33333,161.167 6,163.5C 5.58605,163.957 5.08605,164.291 4.5,164.5C 3.50909,160.555 3.17575,156.555 3.5,152.5 Z"/></g>
<g><path style="opacity:0.954" fill="#791b32" d="M 25.5,178.5 C 25.5,182.167 25.5,185.833 25.5,189.5C 23.954,192.2 21.6206,194.033 18.5,195C 21.1506,195.153 23.4839,195.987 25.5,197.5C 25.5,199.5 25.5,201.5 25.5,203.5C 22.7139,205.113 20.0472,206.946 17.5,209C 20.2538,209.272 22.9205,209.772 25.5,210.5C 25.5,212.5 25.5,214.5 25.5,216.5C 17.8251,217.875 10.1584,217.709 2.5,216C -0.265169,213.034 0.0681644,210.367 3.5,208C 5.5,206.667 7.5,205.333 9.5,204C 2.9218,205.264 0.421796,202.764 2,196.5C 3.41941,195.54 4.91941,194.707 6.5,194C -1.74033,186.32 -1.07366,179.32 8.5,173C 15.5587,171.076 21.2253,172.91 25.5,178.5 Z M 10.5,180.5 C 12.5273,180.338 14.5273,180.505 16.5,181C 19.1667,183 19.1667,185 16.5,187C 9.76135,188.447 7.76135,186.28 10.5,180.5 Z"/></g>
<g><path style="opacity:1" fill="#ce2039" d="M 4.5,197.5 C 10.8627,197.407 17.1961,197.74 23.5,198.5C 23.607,200.903 22.607,202.736 20.5,204C 16.9961,205.918 13.6628,208.084 10.5,210.5C 14.7828,211.492 19.1161,211.826 23.5,211.5C 23.5,212.5 23.5,213.5 23.5,214.5C 16.8333,214.5 10.1667,214.5 3.5,214.5C 3.23798,213.022 3.57131,211.689 4.5,210.5C 8.67559,207.912 12.6756,205.079 16.5,202C 12.5,201.667 8.5,201.333 4.5,201C 3.3157,199.855 3.3157,198.688 4.5,197.5 Z"/></g>
<g><path style="opacity:1" fill="#cc2039" d="M 9.5,174.5 C 19.5129,173.348 24.0129,177.681 23,187.5C 20.3674,192.732 16.2008,194.565 10.5,193C 4.53057,190.897 2.3639,186.73 4,180.5C 5.35968,177.977 7.19301,175.977 9.5,174.5 Z M 10.5,180.5 C 7.76135,186.28 9.76135,188.447 16.5,187C 19.1667,185 19.1667,183 16.5,181C 14.5273,180.505 12.5273,180.338 10.5,180.5 Z"/></g>
<g><path style="opacity:0.968" fill="#7c1b32" d="M 10.5,177.5 C 18.1998,176.879 21.3665,180.213 20,187.5C 15.8716,191.446 11.7049,191.446 7.5,187.5C 6.47978,185.568 6.31312,183.568 7,181.5C 8.37561,180.295 9.54227,178.962 10.5,177.5 Z M 10.5,180.5 C 7.76135,186.28 9.76135,188.447 16.5,187C 19.1667,185 19.1667,183 16.5,181C 14.5273,180.505 12.5273,180.338 10.5,180.5 Z"/></g>
<g><path style="opacity:0.952" fill="#35152b" d="M 14.5,349.5 C 13.1667,349.5 11.8333,349.5 10.5,349.5C 9.34181,318.905 9.17515,288.238 10,257.5C 11.6667,256.167 13.3333,256.167 15,257.5C 15.8249,288.238 15.6582,318.905 14.5,349.5 Z"/></g>
<g><path style="opacity:1" fill="#4d172d" d="M 11.5,259.5 C 12.8327,273.818 13.4994,288.484 13.5,303.5C 13.1667,318.167 12.8333,332.833 12.5,347.5C 11.5002,318.174 11.1668,288.841 11.5,259.5 Z"/></g>
</svg>
